<?xml version="1.0" standalone="no"?>
<!DOCTYPE svg PUBLIC "-//W3C//DTD SVG 20010904//EN"
 "http://www.w3.org/TR/2001/REC-SVG-20010904/DTD/svg10.dtd">
<svg version="1.0" xmlns="http://www.w3.org/2000/svg"
 width="450.000000pt" height="450.000000pt" viewBox="0 0 450.000000 450.000000"
 preserveAspectRatio="xMidYMid meet">
<metadata>
Created by potrace 1.14, written by Peter Selinger 2001-2017
</metadata>
<g transform="translate(0.000000,450.000000) scale(0.100000,-0.100000)"
fill="#000000" stroke="none">
<path d="M2246 4389 c-43 -12 -73 -46 -98 -108 -19 -49 -22 -75 -22 -216 -1
-88 3 -187 7 -220 5 -33 10 -73 12 -90 7 -55 14 -100 20 -130 6 -30 26 -132
30 -150 1 -5 5 -28 10 -50 13 -66 43 -187 48 -192 7 -7 24 50 47 157 24 111
68 340 76 390 2 19 6 44 9 55 17 83 24 336 11 415 -9 57 -49 126 -79 136 -33
11 -39 12 -71 3z"/>
<path d="M1325 3667 c-71 -28 -103 -70 -109 -143 -7 -92 51 -154 144 -154 23
0 51 5 63 11 25 13 77 69 77 84 0 6 4 16 8 23 22 34 260 -136 342 -244 8 -10
28 -36 43 -57 40 -53 129 -230 155 -307 39 -121 78 -272 74 -291 -1 -4 3 -20
7 -37 5 -16 12 -67 16 -113 8 -89 10 -99 27 -99 14 0 4 182 -16 305 -39 228
-124 452 -238 626 -55 83 -68 101 -132 169 -158 169 -360 268 -461 227z"/>
<path d="M3090 3672 c-45 -7 -144 -53 -205 -95 -169 -114 -310 -292 -399 -502
-21 -49 -44 -104 -51 -121 -27 -65 -80 -276 -90 -364 -3 -25 -8 -55 -10 -67
-7 -44 -8 -160 -1 -171 13 -21 22 -13 24 21 3 31 8 81 16 142 2 17 7 50 11 75
5 25 9 52 10 60 1 8 5 25 9 37 4 12 9 31 11 44 7 33 23 85 57 174 74 198 183
358 319 468 43 34 183 117 199 117 4 0 15 -18 25 -41 67 -149 294 -88 279 75
-6 58 -33 98 -84 123 -52 24 -85 32 -120 25z"/>
<path d="M1322 2990 c-33 -20 -52 -53 -47 -80 12 -62 18 -69 85 -104 161 -85
327 -257 428 -445 34 -63 39 -78 30 -97 -6 -13 -14 -24 -17 -24 -8 0 -84 51
-91 61 -3 4 -44 32 -92 62 -83 52 -237 121 -292 131 -14 3 -29 7 -34 9 -27 18
-177 25 -247 13 -171 -30 -286 -100 -342 -210 -34 -68 -37 -79 -37 -186 -1
-111 17 -175 66 -234 62 -76 149 -90 235 -40 47 27 108 88 129 130 37 70 17
155 -41 180 -37 15 -62 9 -116 -28 -24 -16 -28 -16 -33 -2 -8 21 16 74 50 108
46 46 108 68 204 74 175 9 357 -71 532 -234 57 -53 178 -188 178 -198 0 -3 16
-27 36 -53 88 -115 184 -372 208 -558 31 -238 36 -315 36 -565 0 -183 -3 -233
-16 -340 -4 -30 -8 -64 -9 -75 -3 -22 -12 -52 -24 -74 -13 -25 -30 -24 -40 2
-27 71 -110 13 -92 -64 14 -56 21 -67 56 -83 42 -20 48 -20 94 4 45 23 73 72
95 170 15 65 30 195 28 238 -1 12 4 22 11 22 8 0 13 -14 13 -37 5 -232 60
-387 147 -408 100 -26 177 137 87 185 -27 14 -47 3 -59 -32 -10 -29 -12 -30
-29 -15 -19 18 -36 103 -49 252 -9 91 -8 457 1 556 3 37 8 91 10 121 5 58 16
141 22 173 2 11 7 34 9 50 10 52 46 176 65 221 11 24 17 44 15 44 -3 0 15 39
39 86 42 79 126 204 178 265 73 84 95 105 167 163 92 74 150 110 224 137 28
11 59 23 67 26 31 13 48 15 141 19 109 4 155 -7 216 -50 49 -34 68 -58 77
-104 9 -38 1 -40 -48 -11 -58 34 -86 32 -123 -8 -57 -60 -42 -142 42 -232 120
-128 276 -108 345 45 53 116 44 273 -23 387 -48 81 -130 133 -265 168 -76 20
-204 27 -252 15 -14 -3 -34 -8 -45 -10 -135 -29 -350 -135 -455 -224 -14 -12
-31 -27 -39 -33 -9 -8 -19 -9 -29 -3 -20 13 -23 40 -9 73 17 41 132 213 163
246 16 17 38 41 49 55 18 23 52 54 130 119 15 13 61 41 101 63 83 45 85 47 91
99 12 99 -97 137 -212 74 -177 -97 -352 -311 -469 -574 -40 -88 -100 -244
-112 -288 -37 -140 -75 -296 -79 -328 -3 -22 -8 -47 -10 -55 -3 -8 -7 -33 -10
-55 -2 -22 -6 -49 -9 -60 -7 -37 -16 -100 -21 -155 -3 -30 -8 -77 -11 -105
-10 -100 -23 -239 -28 -320 -4 -63 -26 -74 -26 -13 0 23 -2 63 -4 88 -3 25 -7
68 -10 95 -4 49 -11 119 -22 220 -11 109 -13 127 -29 230 -14 88 -16 99 -20
104 -2 4 -6 25 -9 47 -4 22 -18 85 -31 140 -14 54 -27 108 -30 119 -22 94
-113 323 -181 449 -86 163 -230 340 -329 405 -22 14 -42 29 -45 33 -12 16
-117 58 -145 58 -16 0 -45 -9 -63 -20z"/>
</g>
</svg>
